<?xml version="1.0" encoding="iso-8859-1"?>
<!-- Generator: Adobe Illustrator 18.0.0, SVG Export Plug-In . SVG Version: 6.00 Build 0)  -->
<!DOCTYPE svg PUBLIC "-//W3C//DTD SVG 1.1//EN" "http://www.w3.org/Graphics/SVG/1.1/DTD/svg11.dtd">
<svg version="1.1" id="cologne" xmlns="http://www.w3.org/2000/svg" xmlns:xlink="http://www.w3.org/1999/xlink"
	 viewBox="0 0 61.971 61.971" xml:space="preserve">
<path d="M40.588,21.626v-7.422c0-1.657-1.343-3-3-3h-3.602V3c0-1.657-1.343-3-3-3H18.872
	c-1.657,0-3,1.343-3,3v2.334c0,1.657,1.343,3,3,3c1.428,0,2.623-0.998,2.926-2.334h6.188v5.204h-3.603c-1.657,0-3,1.343-3,3v7.422
	C11.824,25.451,5.05,34.802,5.05,45.711c0,5.406,1.653,10.593,4.782,14.997c0.563,0.792,1.474,1.263,2.446,1.263h37.416
	c0.972,0,1.883-0.471,2.446-1.263c3.128-4.404,4.782-9.591,4.782-14.997C56.921,34.802,50.147,25.451,40.588,21.626z M30.986,25.775
	c9.321,0,17.146,6.44,19.317,15.098H11.669C13.839,32.215,21.664,25.775,30.986,25.775z"/>
</svg>
